G04 #@! TF.GenerationSoftware,KiCad,Pcbnew,(5.1.2-1)-1*
G04 #@! TF.CreationDate,2019-07-31T09:07:11+08:00*
G04 #@! TF.ProjectId,SDR_RECEIVER,5344525f-5245-4434-9549-5645522e6b69,rev?*
G04 #@! TF.SameCoordinates,Original*
G04 #@! TF.FileFunction,Soldermask,Bot*
G04 #@! TF.FilePolarity,Negative*
%FSLAX46Y46*%
G04 Gerber Fmt 4.6, Leading zero omitted, Abs format (unit mm)*
G04 Created by KiCad (PCBNEW (5.1.2-1)-1) date 2019-07-31 09:07:11*
%MOMM*%
%LPD*%
G04 APERTURE LIST*
%ADD10O,1.700000X1.700000*%
%ADD11R,1.700000X1.700000*%
%ADD12C,2.700000*%
%ADD13C,1.520000*%
%ADD14R,2.500000X1.800000*%
%ADD15R,1.800000X2.500000*%
%ADD16C,1.200000*%
%ADD17R,1.600000X1.600000*%
%ADD18C,1.600000*%
%ADD19O,1.600000X1.600000*%
%ADD20C,1.998980*%
%ADD21C,1.620000*%
%ADD22C,1.500000*%
%ADD23R,3.200000X2.000000*%
%ADD24C,2.000000*%
%ADD25R,2.000000X2.000000*%
%ADD26C,3.810000*%
%ADD27C,3.556000*%
%ADD28C,6.400000*%
%ADD29R,2.200000X2.200000*%
%ADD30O,2.200000X2.200000*%
G04 APERTURE END LIST*
D10*
X102870000Y-80518000D03*
X100330000Y-80518000D03*
D11*
X97790000Y-80518000D03*
D12*
X186310000Y-67660000D03*
X186310000Y-79660000D03*
D13*
X183610000Y-74930000D03*
X183610000Y-72390000D03*
X181610000Y-72390000D03*
X181610000Y-74930000D03*
D14*
X184150000Y-121880000D03*
X184150000Y-116880000D03*
X184150000Y-124380000D03*
X184150000Y-114380000D03*
D15*
X189150000Y-119380000D03*
D16*
X184150000Y-119380000D03*
X189150000Y-124380000D03*
X191650000Y-124380000D03*
X189150000Y-114380000D03*
X191650000Y-114380000D03*
D17*
X144780000Y-128270000D03*
D18*
X142280000Y-128270000D03*
D19*
X169160000Y-104140000D03*
X166620000Y-104140000D03*
D17*
X160020000Y-55880000D03*
D19*
X129540000Y-104140000D03*
X157480000Y-55880000D03*
X132080000Y-104140000D03*
X154940000Y-55880000D03*
X134620000Y-104140000D03*
X152400000Y-55880000D03*
X137160000Y-104140000D03*
X149860000Y-55880000D03*
X139700000Y-104140000D03*
X147320000Y-55880000D03*
X142240000Y-104140000D03*
X144780000Y-55880000D03*
X146300000Y-104140000D03*
X142240000Y-55880000D03*
X148840000Y-104140000D03*
X137160000Y-55880000D03*
X151380000Y-104140000D03*
X134620000Y-55880000D03*
X153920000Y-104140000D03*
X132080000Y-55880000D03*
X156460000Y-104140000D03*
X129540000Y-55880000D03*
X159000000Y-104140000D03*
X127000000Y-55880000D03*
X161540000Y-104140000D03*
X124460000Y-55880000D03*
X164080000Y-104140000D03*
X124460000Y-104140000D03*
X127000000Y-104140000D03*
D17*
X97790000Y-110490000D03*
D19*
X90170000Y-110490000D03*
D17*
X90170000Y-113030000D03*
D19*
X97790000Y-113030000D03*
X90170000Y-115570000D03*
D17*
X97790000Y-115570000D03*
X90170000Y-118110000D03*
D19*
X97790000Y-118110000D03*
D17*
X97790000Y-120650000D03*
D19*
X90170000Y-120650000D03*
X97790000Y-123190000D03*
D17*
X90170000Y-123190000D03*
D19*
X90170000Y-125730000D03*
D17*
X97790000Y-125730000D03*
D19*
X97790000Y-128270000D03*
D17*
X90170000Y-128270000D03*
D19*
X110490000Y-110490000D03*
D17*
X102870000Y-110490000D03*
D19*
X102870000Y-113030000D03*
D17*
X110490000Y-113030000D03*
D19*
X110490000Y-115570000D03*
D17*
X102870000Y-115570000D03*
X110490000Y-118110000D03*
D19*
X102870000Y-118110000D03*
X110490000Y-120650000D03*
D17*
X102870000Y-120650000D03*
X110490000Y-123190000D03*
D19*
X102870000Y-123190000D03*
D17*
X102870000Y-125730000D03*
D19*
X110490000Y-125730000D03*
D17*
X110490000Y-128270000D03*
D19*
X102870000Y-128270000D03*
D11*
X54610000Y-95250000D03*
D10*
X54610000Y-92710000D03*
X54610000Y-90170000D03*
X54610000Y-81280000D03*
D11*
X54610000Y-83820000D03*
D20*
X76962000Y-92788740D03*
X76962000Y-102948740D03*
X79834740Y-102870000D03*
X89994740Y-102870000D03*
X124538740Y-132334000D03*
X114378740Y-132334000D03*
D21*
X111760000Y-80090000D03*
X109260000Y-82590000D03*
X111760000Y-85090000D03*
D22*
X174520000Y-123110000D03*
X174520000Y-118110000D03*
D23*
X167520000Y-126210000D03*
X167520000Y-115010000D03*
D24*
X160020000Y-123110000D03*
X160020000Y-120610000D03*
D25*
X160020000Y-118110000D03*
D18*
X142280000Y-113030000D03*
D17*
X144780000Y-113030000D03*
D22*
X163830000Y-94615000D03*
X158930000Y-94615000D03*
D26*
X47625000Y-103505000D03*
D27*
X50800000Y-106680000D03*
D26*
X53975000Y-103505000D03*
X47625000Y-109855000D03*
X53975000Y-109855000D03*
D11*
X120650000Y-62230000D03*
D10*
X123190000Y-62230000D03*
X125730000Y-62230000D03*
X128270000Y-62230000D03*
X130810000Y-62230000D03*
X133350000Y-62230000D03*
X135890000Y-62230000D03*
X138430000Y-62230000D03*
X140970000Y-62230000D03*
X143510000Y-62230000D03*
X146050000Y-62230000D03*
X148590000Y-62230000D03*
X151130000Y-62230000D03*
X153670000Y-62230000D03*
X156210000Y-62230000D03*
X158750000Y-62230000D03*
D11*
X104140000Y-74930000D03*
D10*
X101600000Y-74930000D03*
X99060000Y-74930000D03*
X96520000Y-74930000D03*
X93980000Y-74930000D03*
X91440000Y-74930000D03*
X88900000Y-74930000D03*
D28*
X193040000Y-55880000D03*
X48260000Y-130810000D03*
X193040000Y-130810000D03*
X48260000Y-55880000D03*
D29*
X76962000Y-89408000D03*
D30*
X76962000Y-79248000D03*
M02*
