M48
; DRILL file {KiCad (5.1.2-1)-1} date Wednesday, 31 July 2019 at 09:07:14
; FORMAT={-:-/ absolute / metric / decimal}
; #@! TF.CreationDate,2019-07-31T09:07:14+08:00
; #@! TF.GenerationSoftware,Kicad,Pcbnew,(5.1.2-1)-1
; #@! TF.FileFunction,Plated,1,2,PTH
FMAT,2
METRIC
T1C0.400
T2C0.800
T3C0.810
T4C0.900
T5C1.000
T6C1.001
T7C1.100
T8C1.270
T9C1.500
T10C1.524
T11C2.300
T12C3.200
%
G90
G05
T1
X58.42Y-106.68
X84.074Y-113.284
X84.328Y-109.728
X86.9Y-73.3
X86.9Y-75.3
X87.63Y-88.646
X87.7Y-77.3
X88.392Y-72.3
X88.646Y-110.49
X88.646Y-113.03
X88.646Y-115.57
X88.646Y-118.11
X88.646Y-120.65
X88.646Y-123.19
X88.646Y-125.73
X88.646Y-128.27
X88.646Y-130.048
X89.154Y-108.458
X89.408Y-77.47
X89.433Y-90.424
X90.17Y-130.556
X90.3Y-72.3
X90.932Y-107.95
X91.186Y-77.47
X91.7Y-93.3
X91.948Y-100.076
X91.948Y-102.362
X91.948Y-104.394
X91.948Y-106.172
X92.048Y-72.3
X92.71Y-92.456
X92.71Y-95.25
X92.71Y-97.536
X92.71Y-130.556
X93.726Y-107.696
X93.834Y-96.266
X94.4Y-77.5
X94.488Y-91.44
X94.996Y-79.756
X94.996Y-82.804
X95.25Y-130.556
X95.504Y-85.598
X95.504Y-87.63
X95.504Y-89.916
X96.52Y-87.884
X96.52Y-94.7
X97.79Y-96.266
X97.79Y-130.556
X98.8Y-99.9
X99.8Y-107.5
X99.822Y-111.8
X99.822Y-116.985
X100.33Y-130.556
X100.584Y-119.126
X100.584Y-121.92
X100.584Y-124.714
X100.584Y-127.0
X102.4Y-77.45
X102.87Y-94.7
X103.124Y-130.556
X103.4Y-107.5
X105.1Y-83.82
X105.3Y-114.3
X105.4Y-77.45
X105.4Y-116.985
X105.41Y-79.756
X105.41Y-81.788
X106.275Y-98.525
X106.68Y-83.82
X106.68Y-107.442
X107.442Y-99.568
X107.9Y-86.6
X107.95Y-106.426
X108.458Y-98.044
X108.458Y-101.092
X108.458Y-102.87
X108.458Y-104.902
X108.458Y-108.204
X109.728Y-86.868
X109.728Y-88.392
X109.728Y-89.916
X109.728Y-91.694
X109.728Y-93.472
X109.728Y-95.25
X109.728Y-97.028
X110.744Y-108.712
X110.744Y-130.81
X112.268Y-110.236
X112.268Y-113.03
X112.268Y-115.57
X112.268Y-118.11
X112.268Y-120.65
X112.268Y-123.19
X112.268Y-125.73
X112.268Y-128.27
X112.268Y-130.81
X112.776Y-63.754
X120.65Y-115.6
X120.65Y-118.364
X120.65Y-120.5
X120.65Y-123.19
X120.65Y-125.6
X120.65Y-128.415
X125.73Y-115.57
X125.73Y-118.11
X125.73Y-120.65
X125.73Y-123.19
X125.73Y-125.73
X126.98Y-130.895
X128.778Y-119.38
X133.33Y-128.27
X140.97Y-122.174
X143.51Y-88.138
X145.923Y-67.335
X145.923Y-96.164
X146.05Y-121.158
X150.368Y-118.11
X150.368Y-125.73
X154.94Y-88.138
X154.94Y-90.424
X154.94Y-94.488
X154.94Y-97.79
X159.461Y-99.441
X167.132Y-84.15
X168.656Y-94.996
X169.418Y-86.36
X171.526Y-96.698
X173.253Y-80.975
X173.736Y-79.502
X174.066Y-96.241
X178.562Y-100.076
X178.562Y-103.378
X180.086Y-83.82
X181.61Y-86.36
X181.61Y-88.9
T2
X102.87Y-123.19
X110.49Y-123.19
X90.17Y-113.03
X97.79Y-113.03
X102.87Y-115.57
X110.49Y-115.57
X90.17Y-125.73
X97.79Y-125.73
X158.93Y-94.615
X163.83Y-94.615
X90.17Y-118.11
X97.79Y-118.11
X90.17Y-123.19
X97.79Y-123.19
X90.17Y-110.49
X97.79Y-110.49
X102.87Y-113.03
X110.49Y-113.03
X102.87Y-120.65
X110.49Y-120.65
X124.46Y-55.88
X124.46Y-104.14
X127.0Y-55.88
X127.0Y-104.14
X129.54Y-55.88
X129.54Y-104.14
X132.08Y-55.88
X132.08Y-104.14
X134.62Y-55.88
X134.62Y-104.14
X137.16Y-55.88
X137.16Y-104.14
X139.7Y-104.14
X142.24Y-55.88
X142.24Y-104.14
X144.78Y-55.88
X146.3Y-104.14
X147.32Y-55.88
X148.84Y-104.14
X149.86Y-55.88
X151.38Y-104.14
X152.4Y-55.88
X153.92Y-104.14
X154.94Y-55.88
X156.46Y-104.14
X157.48Y-55.88
X159.0Y-104.14
X160.02Y-55.88
X161.54Y-104.14
X164.08Y-104.14
X166.62Y-104.14
X169.16Y-104.14
X102.87Y-128.27
X110.49Y-128.27
X90.17Y-120.65
X97.79Y-120.65
X142.28Y-128.27
X144.78Y-128.27
X142.28Y-113.03
X144.78Y-113.03
X102.87Y-118.11
X110.49Y-118.11
X102.87Y-110.49
X110.49Y-110.49
X90.17Y-128.27
X97.79Y-128.27
X90.17Y-115.57
X97.79Y-115.57
X102.87Y-125.73
X110.49Y-125.73
T3
X181.61Y-72.39
X181.61Y-74.93
X183.61Y-72.39
X183.61Y-74.93
T4
X109.26Y-82.59
X111.76Y-80.09
X111.76Y-85.09
T5
X54.61Y-81.28
X54.61Y-83.82
X88.9Y-74.93
X91.44Y-74.93
X93.98Y-74.93
X96.52Y-74.93
X99.06Y-74.93
X101.6Y-74.93
X104.14Y-74.93
X97.79Y-80.518
X100.33Y-80.518
X102.87Y-80.518
X54.61Y-90.17
X54.61Y-92.71
X54.61Y-95.25
X160.02Y-118.11
X160.02Y-120.61
X160.02Y-123.11
X174.52Y-118.11
X174.52Y-123.11
X120.65Y-62.23
X123.19Y-62.23
X125.73Y-62.23
X128.27Y-62.23
X130.81Y-62.23
X133.35Y-62.23
X135.89Y-62.23
X138.43Y-62.23
X140.97Y-62.23
X143.51Y-62.23
X146.05Y-62.23
X148.59Y-62.23
X151.13Y-62.23
X153.67Y-62.23
X156.21Y-62.23
X158.75Y-62.23
T6
X76.962Y-92.789
X76.962Y-102.949
X79.835Y-102.87
X89.995Y-102.87
X114.379Y-132.334
X124.539Y-132.334
T7
X76.962Y-79.248
X76.962Y-89.408
T8
X50.8Y-106.68
T10
X47.625Y-103.505
X47.625Y-109.855
X53.975Y-103.505
X53.975Y-109.855
T11
X186.31Y-67.66
X186.31Y-79.66
T12
X193.04Y-130.81
X48.26Y-130.81
X193.04Y-55.88
X48.26Y-55.88
T2
G00X184.5Y-114.38
M15
G01X183.8Y-114.38
M16
G05
G00X184.5Y-116.88
M15
G01X183.8Y-116.88
M16
G05
G00X184.5Y-121.88
M15
G01X183.8Y-121.88
M16
G05
G00X184.5Y-124.38
M15
G01X183.8Y-124.38
M16
G05
G00X189.15Y-119.73
M15
G01X189.15Y-119.03
M16
G05
T9
G00X166.87Y-115.01
M15
G01X168.17Y-115.01
M16
G05
G00X166.87Y-126.21
M15
G01X168.17Y-126.21
M16
G05
T0
M30
