G04 #@! TF.GenerationSoftware,KiCad,Pcbnew,(5.1.2-1)-1*
G04 #@! TF.CreationDate,2019-07-31T09:07:11+08:00*
G04 #@! TF.ProjectId,SDR_RECEIVER,5344525f-5245-4434-9549-5645522e6b69,rev?*
G04 #@! TF.SameCoordinates,Original*
G04 #@! TF.FileFunction,Soldermask,Top*
G04 #@! TF.FilePolarity,Negative*
%FSLAX46Y46*%
G04 Gerber Fmt 4.6, Leading zero omitted, Abs format (unit mm)*
G04 Created by KiCad (PCBNEW (5.1.2-1)-1) date 2019-07-31 09:07:11*
%MOMM*%
%LPD*%
G04 APERTURE LIST*
%ADD10C,0.300000*%
%ADD11O,1.700000X1.700000*%
%ADD12R,1.700000X1.700000*%
%ADD13C,2.700000*%
%ADD14C,1.520000*%
%ADD15R,2.500000X1.800000*%
%ADD16R,1.800000X2.500000*%
%ADD17C,1.200000*%
%ADD18R,1.500000X1.250000*%
%ADD19R,1.500000X1.300000*%
%ADD20R,1.600000X1.600000*%
%ADD21C,1.600000*%
%ADD22O,1.600000X1.600000*%
%ADD23R,1.250000X1.500000*%
%ADD24C,1.998980*%
%ADD25R,1.300000X1.500000*%
%ADD26C,1.620000*%
%ADD27C,1.500000*%
%ADD28R,3.200000X2.000000*%
%ADD29C,2.000000*%
%ADD30R,2.000000X2.000000*%
%ADD31R,1.220000X0.650000*%
%ADD32R,0.600000X1.500000*%
%ADD33C,0.100000*%
%ADD34C,1.250000*%
%ADD35R,1.600000X3.500000*%
%ADD36C,3.810000*%
%ADD37C,3.556000*%
%ADD38C,6.400000*%
%ADD39R,2.200000X2.200000*%
%ADD40O,2.200000X2.200000*%
%ADD41R,0.600000X1.550000*%
%ADD42R,1.750000X0.450000*%
G04 APERTURE END LIST*
D10*
X69437714Y-118788571D02*
X68937714Y-118074285D01*
X68580571Y-118788571D02*
X68580571Y-117288571D01*
X69152000Y-117288571D01*
X69294857Y-117360000D01*
X69366285Y-117431428D01*
X69437714Y-117574285D01*
X69437714Y-117788571D01*
X69366285Y-117931428D01*
X69294857Y-118002857D01*
X69152000Y-118074285D01*
X68580571Y-118074285D01*
X70580571Y-118002857D02*
X70080571Y-118002857D01*
X70080571Y-118788571D02*
X70080571Y-117288571D01*
X70794857Y-117288571D01*
X71366285Y-118645714D02*
X71437714Y-118717142D01*
X71366285Y-118788571D01*
X71294857Y-118717142D01*
X71366285Y-118645714D01*
X71366285Y-118788571D01*
X73152000Y-118360000D02*
X73866285Y-118360000D01*
X73009142Y-118788571D02*
X73509142Y-117288571D01*
X74009142Y-118788571D01*
X74509142Y-118788571D02*
X74509142Y-117288571D01*
X75009142Y-118360000D01*
X75509142Y-117288571D01*
X75509142Y-118788571D01*
X76223428Y-118788571D02*
X76223428Y-117288571D01*
X76794857Y-117288571D01*
X76937714Y-117360000D01*
X77009142Y-117431428D01*
X77080571Y-117574285D01*
X77080571Y-117788571D01*
X77009142Y-117931428D01*
X76937714Y-118002857D01*
X76794857Y-118074285D01*
X76223428Y-118074285D01*
X77723428Y-118645714D02*
X77794857Y-118717142D01*
X77723428Y-118788571D01*
X77652000Y-118717142D01*
X77723428Y-118645714D01*
X77723428Y-118788571D01*
X47081714Y-77894571D02*
X47081714Y-76394571D01*
X47653142Y-76394571D01*
X47796000Y-76466000D01*
X47867428Y-76537428D01*
X47938857Y-76680285D01*
X47938857Y-76894571D01*
X47867428Y-77037428D01*
X47796000Y-77108857D01*
X47653142Y-77180285D01*
X47081714Y-77180285D01*
X48867428Y-76394571D02*
X49153142Y-76394571D01*
X49296000Y-76466000D01*
X49438857Y-76608857D01*
X49510285Y-76894571D01*
X49510285Y-77394571D01*
X49438857Y-77680285D01*
X49296000Y-77823142D01*
X49153142Y-77894571D01*
X48867428Y-77894571D01*
X48724571Y-77823142D01*
X48581714Y-77680285D01*
X48510285Y-77394571D01*
X48510285Y-76894571D01*
X48581714Y-76608857D01*
X48724571Y-76466000D01*
X48867428Y-76394571D01*
X50010285Y-76394571D02*
X50367428Y-77894571D01*
X50653142Y-76823142D01*
X50938857Y-77894571D01*
X51296000Y-76394571D01*
X51867428Y-77108857D02*
X52367428Y-77108857D01*
X52581714Y-77894571D02*
X51867428Y-77894571D01*
X51867428Y-76394571D01*
X52581714Y-76394571D01*
X54081714Y-77894571D02*
X53581714Y-77180285D01*
X53224571Y-77894571D02*
X53224571Y-76394571D01*
X53796000Y-76394571D01*
X53938857Y-76466000D01*
X54010285Y-76537428D01*
X54081714Y-76680285D01*
X54081714Y-76894571D01*
X54010285Y-77037428D01*
X53938857Y-77108857D01*
X53796000Y-77180285D01*
X53224571Y-77180285D01*
X45657142Y-99310000D02*
X46371428Y-99310000D01*
X45514285Y-99738571D02*
X46014285Y-98238571D01*
X46514285Y-99738571D01*
X47014285Y-99738571D02*
X47014285Y-98238571D01*
X47871428Y-99738571D01*
X47871428Y-98238571D01*
X48371428Y-98238571D02*
X49228571Y-98238571D01*
X48800000Y-99738571D02*
X48800000Y-98238571D01*
X49728571Y-99595714D02*
X49800000Y-99667142D01*
X49728571Y-99738571D01*
X49657142Y-99667142D01*
X49728571Y-99595714D01*
X49728571Y-99738571D01*
X51514285Y-99310000D02*
X52228571Y-99310000D01*
X51371428Y-99738571D02*
X51871428Y-98238571D01*
X52371428Y-99738571D01*
X52871428Y-98238571D02*
X52871428Y-99452857D01*
X52942857Y-99595714D01*
X53014285Y-99667142D01*
X53157142Y-99738571D01*
X53442857Y-99738571D01*
X53585714Y-99667142D01*
X53657142Y-99595714D01*
X53728571Y-99452857D01*
X53728571Y-98238571D01*
X54300000Y-98238571D02*
X55300000Y-99738571D01*
X55300000Y-98238571D02*
X54300000Y-99738571D01*
X55871428Y-99595714D02*
X55942857Y-99667142D01*
X55871428Y-99738571D01*
X55800000Y-99667142D01*
X55871428Y-99595714D01*
X55871428Y-99738571D01*
X182690285Y-62678571D02*
X182690285Y-63892857D01*
X182761714Y-64035714D01*
X182833142Y-64107142D01*
X182976000Y-64178571D01*
X183261714Y-64178571D01*
X183404571Y-64107142D01*
X183476000Y-64035714D01*
X183547428Y-63892857D01*
X183547428Y-62678571D01*
X184190285Y-64107142D02*
X184404571Y-64178571D01*
X184761714Y-64178571D01*
X184904571Y-64107142D01*
X184976000Y-64035714D01*
X185047428Y-63892857D01*
X185047428Y-63750000D01*
X184976000Y-63607142D01*
X184904571Y-63535714D01*
X184761714Y-63464285D01*
X184476000Y-63392857D01*
X184333142Y-63321428D01*
X184261714Y-63250000D01*
X184190285Y-63107142D01*
X184190285Y-62964285D01*
X184261714Y-62821428D01*
X184333142Y-62750000D01*
X184476000Y-62678571D01*
X184833142Y-62678571D01*
X185047428Y-62750000D01*
X186190285Y-63392857D02*
X186404571Y-63464285D01*
X186476000Y-63535714D01*
X186547428Y-63678571D01*
X186547428Y-63892857D01*
X186476000Y-64035714D01*
X186404571Y-64107142D01*
X186261714Y-64178571D01*
X185690285Y-64178571D01*
X185690285Y-62678571D01*
X186190285Y-62678571D01*
X186333142Y-62750000D01*
X186404571Y-62821428D01*
X186476000Y-62964285D01*
X186476000Y-63107142D01*
X186404571Y-63250000D01*
X186333142Y-63321428D01*
X186190285Y-63392857D01*
X185690285Y-63392857D01*
X188261714Y-64107142D02*
X188476000Y-64178571D01*
X188833142Y-64178571D01*
X188976000Y-64107142D01*
X189047428Y-64035714D01*
X189118857Y-63892857D01*
X189118857Y-63750000D01*
X189047428Y-63607142D01*
X188976000Y-63535714D01*
X188833142Y-63464285D01*
X188547428Y-63392857D01*
X188404571Y-63321428D01*
X188333142Y-63250000D01*
X188261714Y-63107142D01*
X188261714Y-62964285D01*
X188333142Y-62821428D01*
X188404571Y-62750000D01*
X188547428Y-62678571D01*
X188904571Y-62678571D01*
X189118857Y-62750000D01*
X190047428Y-62678571D02*
X190333142Y-62678571D01*
X190476000Y-62750000D01*
X190618857Y-62892857D01*
X190690285Y-63178571D01*
X190690285Y-63678571D01*
X190618857Y-63964285D01*
X190476000Y-64107142D01*
X190333142Y-64178571D01*
X190047428Y-64178571D01*
X189904571Y-64107142D01*
X189761714Y-63964285D01*
X189690285Y-63678571D01*
X189690285Y-63178571D01*
X189761714Y-62892857D01*
X189904571Y-62750000D01*
X190047428Y-62678571D01*
X191333142Y-62678571D02*
X191333142Y-63892857D01*
X191404571Y-64035714D01*
X191476000Y-64107142D01*
X191618857Y-64178571D01*
X191904571Y-64178571D01*
X192047428Y-64107142D01*
X192118857Y-64035714D01*
X192190285Y-63892857D01*
X192190285Y-62678571D01*
X192904571Y-64178571D02*
X192904571Y-62678571D01*
X193761714Y-64178571D01*
X193761714Y-62678571D01*
X194476000Y-64178571D02*
X194476000Y-62678571D01*
X194833142Y-62678571D01*
X195047428Y-62750000D01*
X195190285Y-62892857D01*
X195261714Y-63035714D01*
X195333142Y-63321428D01*
X195333142Y-63535714D01*
X195261714Y-63821428D01*
X195190285Y-63964285D01*
X195047428Y-64107142D01*
X194833142Y-64178571D01*
X194476000Y-64178571D01*
X185222000Y-109898571D02*
X185222000Y-108398571D01*
X186936285Y-110041428D02*
X186793428Y-109970000D01*
X186650571Y-109827142D01*
X186436285Y-109612857D01*
X186293428Y-109541428D01*
X186150571Y-109541428D01*
X186222000Y-109898571D02*
X186079142Y-109827142D01*
X185936285Y-109684285D01*
X185864857Y-109398571D01*
X185864857Y-108898571D01*
X185936285Y-108612857D01*
X186079142Y-108470000D01*
X186222000Y-108398571D01*
X186507714Y-108398571D01*
X186650571Y-108470000D01*
X186793428Y-108612857D01*
X186864857Y-108898571D01*
X186864857Y-109398571D01*
X186793428Y-109684285D01*
X186650571Y-109827142D01*
X186507714Y-109898571D01*
X186222000Y-109898571D01*
X188936285Y-108398571D02*
X189222000Y-108398571D01*
X189364857Y-108470000D01*
X189507714Y-108612857D01*
X189579142Y-108898571D01*
X189579142Y-109398571D01*
X189507714Y-109684285D01*
X189364857Y-109827142D01*
X189222000Y-109898571D01*
X188936285Y-109898571D01*
X188793428Y-109827142D01*
X188650571Y-109684285D01*
X188579142Y-109398571D01*
X188579142Y-108898571D01*
X188650571Y-108612857D01*
X188793428Y-108470000D01*
X188936285Y-108398571D01*
X190222000Y-108398571D02*
X190222000Y-109612857D01*
X190293428Y-109755714D01*
X190364857Y-109827142D01*
X190507714Y-109898571D01*
X190793428Y-109898571D01*
X190936285Y-109827142D01*
X191007714Y-109755714D01*
X191079142Y-109612857D01*
X191079142Y-108398571D01*
X191579142Y-108398571D02*
X192436285Y-108398571D01*
X192007714Y-109898571D02*
X192007714Y-108398571D01*
X164520857Y-132226857D02*
X164020857Y-132226857D01*
X164020857Y-133012571D02*
X164020857Y-131512571D01*
X164735142Y-131512571D01*
X166163714Y-133012571D02*
X165663714Y-132298285D01*
X165306571Y-133012571D02*
X165306571Y-131512571D01*
X165878000Y-131512571D01*
X166020857Y-131584000D01*
X166092285Y-131655428D01*
X166163714Y-131798285D01*
X166163714Y-132012571D01*
X166092285Y-132155428D01*
X166020857Y-132226857D01*
X165878000Y-132298285D01*
X165306571Y-132298285D01*
X166806571Y-132226857D02*
X167306571Y-132226857D01*
X167520857Y-133012571D02*
X166806571Y-133012571D01*
X166806571Y-131512571D01*
X167520857Y-131512571D01*
X169163714Y-133155428D02*
X169020857Y-133084000D01*
X168878000Y-132941142D01*
X168663714Y-132726857D01*
X168520857Y-132655428D01*
X168378000Y-132655428D01*
X168449428Y-133012571D02*
X168306571Y-132941142D01*
X168163714Y-132798285D01*
X168092285Y-132512571D01*
X168092285Y-132012571D01*
X168163714Y-131726857D01*
X168306571Y-131584000D01*
X168449428Y-131512571D01*
X168735142Y-131512571D01*
X168878000Y-131584000D01*
X169020857Y-131726857D01*
X169092285Y-132012571D01*
X169092285Y-132512571D01*
X169020857Y-132798285D01*
X168878000Y-132941142D01*
X168735142Y-133012571D01*
X168449428Y-133012571D01*
X169735142Y-132869714D02*
X169806571Y-132941142D01*
X169735142Y-133012571D01*
X169663714Y-132941142D01*
X169735142Y-132869714D01*
X169735142Y-133012571D01*
X83400000Y-81450571D02*
X82685714Y-81450571D01*
X82685714Y-79950571D01*
X84185714Y-79950571D02*
X84471428Y-79950571D01*
X84614285Y-80022000D01*
X84757142Y-80164857D01*
X84828571Y-80450571D01*
X84828571Y-80950571D01*
X84757142Y-81236285D01*
X84614285Y-81379142D01*
X84471428Y-81450571D01*
X84185714Y-81450571D01*
X84042857Y-81379142D01*
X83900000Y-81236285D01*
X83828571Y-80950571D01*
X83828571Y-80450571D01*
X83900000Y-80164857D01*
X84042857Y-80022000D01*
X84185714Y-79950571D01*
X86328571Y-81307714D02*
X86257142Y-81379142D01*
X86042857Y-81450571D01*
X85900000Y-81450571D01*
X85685714Y-81379142D01*
X85542857Y-81236285D01*
X85471428Y-81093428D01*
X85400000Y-80807714D01*
X85400000Y-80593428D01*
X85471428Y-80307714D01*
X85542857Y-80164857D01*
X85685714Y-80022000D01*
X85900000Y-79950571D01*
X86042857Y-79950571D01*
X86257142Y-80022000D01*
X86328571Y-80093428D01*
X86900000Y-81022000D02*
X87614285Y-81022000D01*
X86757142Y-81450571D02*
X87257142Y-79950571D01*
X87757142Y-81450571D01*
X88971428Y-81450571D02*
X88257142Y-81450571D01*
X88257142Y-79950571D01*
X90900000Y-79950571D02*
X91185714Y-79950571D01*
X91328571Y-80022000D01*
X91471428Y-80164857D01*
X91542857Y-80450571D01*
X91542857Y-80950571D01*
X91471428Y-81236285D01*
X91328571Y-81379142D01*
X91185714Y-81450571D01*
X90900000Y-81450571D01*
X90757142Y-81379142D01*
X90614285Y-81236285D01*
X90542857Y-80950571D01*
X90542857Y-80450571D01*
X90614285Y-80164857D01*
X90757142Y-80022000D01*
X90900000Y-79950571D01*
X92114285Y-81379142D02*
X92328571Y-81450571D01*
X92685714Y-81450571D01*
X92828571Y-81379142D01*
X92900000Y-81307714D01*
X92971428Y-81164857D01*
X92971428Y-81022000D01*
X92900000Y-80879142D01*
X92828571Y-80807714D01*
X92685714Y-80736285D01*
X92400000Y-80664857D01*
X92257142Y-80593428D01*
X92185714Y-80522000D01*
X92114285Y-80379142D01*
X92114285Y-80236285D01*
X92185714Y-80093428D01*
X92257142Y-80022000D01*
X92400000Y-79950571D01*
X92757142Y-79950571D01*
X92971428Y-80022000D01*
X94471428Y-81307714D02*
X94400000Y-81379142D01*
X94185714Y-81450571D01*
X94042857Y-81450571D01*
X93828571Y-81379142D01*
X93685714Y-81236285D01*
X93614285Y-81093428D01*
X93542857Y-80807714D01*
X93542857Y-80593428D01*
X93614285Y-80307714D01*
X93685714Y-80164857D01*
X93828571Y-80022000D01*
X94042857Y-79950571D01*
X94185714Y-79950571D01*
X94400000Y-80022000D01*
X94471428Y-80093428D01*
X95114285Y-81307714D02*
X95185714Y-81379142D01*
X95114285Y-81450571D01*
X95042857Y-81379142D01*
X95114285Y-81307714D01*
X95114285Y-81450571D01*
X96314000Y-133266571D02*
X96314000Y-131766571D01*
X96814000Y-132838000D01*
X97314000Y-131766571D01*
X97314000Y-133266571D01*
X98028285Y-133266571D02*
X98028285Y-131766571D01*
X98599714Y-131766571D02*
X99599714Y-133266571D01*
X99599714Y-131766571D02*
X98599714Y-133266571D01*
X100171142Y-132480857D02*
X100671142Y-132480857D01*
X100885428Y-133266571D02*
X100171142Y-133266571D01*
X100171142Y-131766571D01*
X100885428Y-131766571D01*
X102385428Y-133266571D02*
X101885428Y-132552285D01*
X101528285Y-133266571D02*
X101528285Y-131766571D01*
X102099714Y-131766571D01*
X102242571Y-131838000D01*
X102314000Y-131909428D01*
X102385428Y-132052285D01*
X102385428Y-132266571D01*
X102314000Y-132409428D01*
X102242571Y-132480857D01*
X102099714Y-132552285D01*
X101528285Y-132552285D01*
X46192857Y-114550000D02*
X46907142Y-114550000D01*
X46050000Y-114978571D02*
X46550000Y-113478571D01*
X47050000Y-114978571D01*
X47550000Y-114978571D02*
X47550000Y-113478571D01*
X48407142Y-114978571D01*
X48407142Y-113478571D01*
X48907142Y-113478571D02*
X49764285Y-113478571D01*
X49335714Y-114978571D02*
X49335714Y-113478571D01*
X50264285Y-114192857D02*
X50764285Y-114192857D01*
X50978571Y-114978571D02*
X50264285Y-114978571D01*
X50264285Y-113478571D01*
X50978571Y-113478571D01*
X51621428Y-114978571D02*
X51621428Y-113478571D01*
X52478571Y-114978571D01*
X52478571Y-113478571D01*
X53192857Y-114978571D02*
X53192857Y-113478571D01*
X54050000Y-114978571D01*
X54050000Y-113478571D01*
X54692857Y-114550000D02*
X55407142Y-114550000D01*
X54550000Y-114978571D02*
X55050000Y-113478571D01*
X55550000Y-114978571D01*
D11*
X102870000Y-80518000D03*
X100330000Y-80518000D03*
D12*
X97790000Y-80518000D03*
D13*
X186310000Y-67660000D03*
X186310000Y-79660000D03*
D14*
X183610000Y-74930000D03*
X183610000Y-72390000D03*
X181610000Y-72390000D03*
X181610000Y-74930000D03*
D15*
X184150000Y-121880000D03*
X184150000Y-116880000D03*
X184150000Y-124380000D03*
X184150000Y-114380000D03*
D16*
X189150000Y-119380000D03*
D17*
X184150000Y-119380000D03*
X189150000Y-124380000D03*
X191650000Y-124380000D03*
X189150000Y-114380000D03*
X191650000Y-114380000D03*
D18*
X176002000Y-100533200D03*
X173502000Y-100533200D03*
X176002000Y-102793800D03*
X173502000Y-102793800D03*
D19*
X166856400Y-99314000D03*
X164156400Y-99314000D03*
X176203600Y-98298000D03*
X173503600Y-98298000D03*
X176203600Y-105079800D03*
X173503600Y-105079800D03*
X169421800Y-101422200D03*
X166721800Y-101422200D03*
X161692600Y-101422200D03*
X164392600Y-101422200D03*
D20*
X144780000Y-128270000D03*
D21*
X142280000Y-128270000D03*
D22*
X169160000Y-104140000D03*
X166620000Y-104140000D03*
D20*
X160020000Y-55880000D03*
D22*
X129540000Y-104140000D03*
X157480000Y-55880000D03*
X132080000Y-104140000D03*
X154940000Y-55880000D03*
X134620000Y-104140000D03*
X152400000Y-55880000D03*
X137160000Y-104140000D03*
X149860000Y-55880000D03*
X139700000Y-104140000D03*
X147320000Y-55880000D03*
X142240000Y-104140000D03*
X144780000Y-55880000D03*
X146300000Y-104140000D03*
X142240000Y-55880000D03*
X148840000Y-104140000D03*
X137160000Y-55880000D03*
X151380000Y-104140000D03*
X134620000Y-55880000D03*
X153920000Y-104140000D03*
X132080000Y-55880000D03*
X156460000Y-104140000D03*
X129540000Y-55880000D03*
X159000000Y-104140000D03*
X127000000Y-55880000D03*
X161540000Y-104140000D03*
X124460000Y-55880000D03*
X164080000Y-104140000D03*
X124460000Y-104140000D03*
X127000000Y-104140000D03*
D18*
X64790000Y-109220000D03*
X67290000Y-109220000D03*
X108672000Y-131064000D03*
X106172000Y-131064000D03*
X81300000Y-108110000D03*
X83800000Y-108110000D03*
D23*
X82296000Y-113264000D03*
X82296000Y-110764000D03*
X89408000Y-93960000D03*
X89408000Y-91460000D03*
D18*
X143530000Y-123190000D03*
X146030000Y-123190000D03*
X119400000Y-114300000D03*
X121900000Y-114300000D03*
X119273000Y-119380000D03*
X121773000Y-119380000D03*
X121900000Y-124460000D03*
X119400000Y-124460000D03*
X119400000Y-129540000D03*
X121900000Y-129540000D03*
X126980000Y-114300000D03*
X124480000Y-114300000D03*
X126980000Y-119380000D03*
X124480000Y-119380000D03*
X124480000Y-124460000D03*
X126980000Y-124460000D03*
X126980000Y-129540000D03*
X124480000Y-129540000D03*
D23*
X143510000Y-118130000D03*
X143510000Y-120630000D03*
D18*
X137160000Y-113030000D03*
X134660000Y-113030000D03*
X130830000Y-127000000D03*
X133330000Y-127000000D03*
X135910000Y-129540000D03*
X138410000Y-129540000D03*
D23*
X106680000Y-94000000D03*
X106680000Y-96500000D03*
X100330000Y-86380000D03*
X100330000Y-88880000D03*
D18*
X149840000Y-58166000D03*
X147340000Y-58166000D03*
X152420000Y-120650000D03*
X154920000Y-120650000D03*
D23*
X117602000Y-62250000D03*
X117602000Y-64750000D03*
D18*
X154920000Y-113030000D03*
X152420000Y-113030000D03*
D23*
X107188000Y-74950000D03*
X107188000Y-77450000D03*
D20*
X97790000Y-110490000D03*
D22*
X90170000Y-110490000D03*
D20*
X90170000Y-113030000D03*
D22*
X97790000Y-113030000D03*
X90170000Y-115570000D03*
D20*
X97790000Y-115570000D03*
X90170000Y-118110000D03*
D22*
X97790000Y-118110000D03*
D20*
X97790000Y-120650000D03*
D22*
X90170000Y-120650000D03*
X97790000Y-123190000D03*
D20*
X90170000Y-123190000D03*
D22*
X90170000Y-125730000D03*
D20*
X97790000Y-125730000D03*
D22*
X97790000Y-128270000D03*
D20*
X90170000Y-128270000D03*
D22*
X110490000Y-110490000D03*
D20*
X102870000Y-110490000D03*
D22*
X102870000Y-113030000D03*
D20*
X110490000Y-113030000D03*
D22*
X110490000Y-115570000D03*
D20*
X102870000Y-115570000D03*
X110490000Y-118110000D03*
D22*
X102870000Y-118110000D03*
X110490000Y-120650000D03*
D20*
X102870000Y-120650000D03*
X110490000Y-123190000D03*
D22*
X102870000Y-123190000D03*
D20*
X102870000Y-125730000D03*
D22*
X110490000Y-125730000D03*
D20*
X110490000Y-128270000D03*
D22*
X102870000Y-128270000D03*
D12*
X54610000Y-95250000D03*
D11*
X54610000Y-92710000D03*
X54610000Y-90170000D03*
X54610000Y-81280000D03*
D12*
X54610000Y-83820000D03*
D24*
X76962000Y-92788740D03*
X76962000Y-102948740D03*
X79834740Y-102870000D03*
X89994740Y-102870000D03*
X124538740Y-132334000D03*
X114378740Y-132334000D03*
D19*
X67390000Y-111760000D03*
X64690000Y-111760000D03*
D25*
X69850000Y-111840000D03*
X69850000Y-109140000D03*
X72390000Y-111760000D03*
X72390000Y-109060000D03*
D19*
X76120000Y-108110000D03*
X78820000Y-108110000D03*
D25*
X105700000Y-105150000D03*
X105700000Y-102450000D03*
X93726000Y-102350000D03*
X93726000Y-105050000D03*
X101600000Y-102450000D03*
X101600000Y-105150000D03*
X97790000Y-105050000D03*
X97790000Y-102350000D03*
D19*
X114220000Y-111760000D03*
X116920000Y-111760000D03*
X116920000Y-116840000D03*
X114220000Y-116840000D03*
X114220000Y-121920000D03*
X116920000Y-121920000D03*
X116920000Y-127000000D03*
X114220000Y-127000000D03*
X127080000Y-116840000D03*
X124380000Y-116840000D03*
X124380000Y-121920000D03*
X127080000Y-121920000D03*
X124380000Y-127000000D03*
X127080000Y-127000000D03*
X124380000Y-111760000D03*
X127080000Y-111760000D03*
D25*
X140970000Y-120730000D03*
X140970000Y-118030000D03*
D19*
X134540000Y-110490000D03*
X137240000Y-110490000D03*
X133430000Y-129540000D03*
X130730000Y-129540000D03*
X135810000Y-127000000D03*
X138510000Y-127000000D03*
X100250000Y-83820000D03*
X102950000Y-83820000D03*
X105490000Y-86360000D03*
X102790000Y-86360000D03*
X105490000Y-88900000D03*
X102790000Y-88900000D03*
X138510000Y-131572000D03*
X135810000Y-131572000D03*
X130810000Y-131572000D03*
X133510000Y-131572000D03*
X152320000Y-125730000D03*
X155020000Y-125730000D03*
X154940000Y-118110000D03*
X152240000Y-118110000D03*
X155020000Y-115570000D03*
X152320000Y-115570000D03*
X152320000Y-123190000D03*
X155020000Y-123190000D03*
D26*
X111760000Y-80090000D03*
X109260000Y-82590000D03*
X111760000Y-85090000D03*
D27*
X174520000Y-123110000D03*
X174520000Y-118110000D03*
D28*
X167520000Y-126210000D03*
X167520000Y-115010000D03*
D29*
X160020000Y-123110000D03*
X160020000Y-120610000D03*
D30*
X160020000Y-118110000D03*
D31*
X76160000Y-110970000D03*
X76160000Y-111920000D03*
X76160000Y-112870000D03*
X78780000Y-112870000D03*
X78780000Y-110970000D03*
D21*
X142280000Y-113030000D03*
D20*
X144780000Y-113030000D03*
D32*
X104140000Y-92550000D03*
X102870000Y-92550000D03*
X101600000Y-92550000D03*
X100330000Y-92550000D03*
X99060000Y-92550000D03*
X97790000Y-92550000D03*
X96520000Y-92550000D03*
X96520000Y-97950000D03*
X97790000Y-97950000D03*
X99060000Y-97950000D03*
X100330000Y-97950000D03*
X101600000Y-97950000D03*
X102870000Y-97950000D03*
X104140000Y-97950000D03*
D33*
G36*
X122449504Y-110886204D02*
G01*
X122473773Y-110889804D01*
X122497571Y-110895765D01*
X122520671Y-110904030D01*
X122542849Y-110914520D01*
X122563893Y-110927133D01*
X122583598Y-110941747D01*
X122601777Y-110958223D01*
X122618253Y-110976402D01*
X122632867Y-110996107D01*
X122645480Y-111017151D01*
X122655970Y-111039329D01*
X122664235Y-111062429D01*
X122670196Y-111086227D01*
X122673796Y-111110496D01*
X122675000Y-111135000D01*
X122675000Y-112385000D01*
X122673796Y-112409504D01*
X122670196Y-112433773D01*
X122664235Y-112457571D01*
X122655970Y-112480671D01*
X122645480Y-112502849D01*
X122632867Y-112523893D01*
X122618253Y-112543598D01*
X122601777Y-112561777D01*
X122583598Y-112578253D01*
X122563893Y-112592867D01*
X122542849Y-112605480D01*
X122520671Y-112615970D01*
X122497571Y-112624235D01*
X122473773Y-112630196D01*
X122449504Y-112633796D01*
X122425000Y-112635000D01*
X121675000Y-112635000D01*
X121650496Y-112633796D01*
X121626227Y-112630196D01*
X121602429Y-112624235D01*
X121579329Y-112615970D01*
X121557151Y-112605480D01*
X121536107Y-112592867D01*
X121516402Y-112578253D01*
X121498223Y-112561777D01*
X121481747Y-112543598D01*
X121467133Y-112523893D01*
X121454520Y-112502849D01*
X121444030Y-112480671D01*
X121435765Y-112457571D01*
X121429804Y-112433773D01*
X121426204Y-112409504D01*
X121425000Y-112385000D01*
X121425000Y-111135000D01*
X121426204Y-111110496D01*
X121429804Y-111086227D01*
X121435765Y-111062429D01*
X121444030Y-111039329D01*
X121454520Y-111017151D01*
X121467133Y-110996107D01*
X121481747Y-110976402D01*
X121498223Y-110958223D01*
X121516402Y-110941747D01*
X121536107Y-110927133D01*
X121557151Y-110914520D01*
X121579329Y-110904030D01*
X121602429Y-110895765D01*
X121626227Y-110889804D01*
X121650496Y-110886204D01*
X121675000Y-110885000D01*
X122425000Y-110885000D01*
X122449504Y-110886204D01*
X122449504Y-110886204D01*
G37*
D34*
X122050000Y-111760000D03*
D33*
G36*
X119649504Y-110886204D02*
G01*
X119673773Y-110889804D01*
X119697571Y-110895765D01*
X119720671Y-110904030D01*
X119742849Y-110914520D01*
X119763893Y-110927133D01*
X119783598Y-110941747D01*
X119801777Y-110958223D01*
X119818253Y-110976402D01*
X119832867Y-110996107D01*
X119845480Y-111017151D01*
X119855970Y-111039329D01*
X119864235Y-111062429D01*
X119870196Y-111086227D01*
X119873796Y-111110496D01*
X119875000Y-111135000D01*
X119875000Y-112385000D01*
X119873796Y-112409504D01*
X119870196Y-112433773D01*
X119864235Y-112457571D01*
X119855970Y-112480671D01*
X119845480Y-112502849D01*
X119832867Y-112523893D01*
X119818253Y-112543598D01*
X119801777Y-112561777D01*
X119783598Y-112578253D01*
X119763893Y-112592867D01*
X119742849Y-112605480D01*
X119720671Y-112615970D01*
X119697571Y-112624235D01*
X119673773Y-112630196D01*
X119649504Y-112633796D01*
X119625000Y-112635000D01*
X118875000Y-112635000D01*
X118850496Y-112633796D01*
X118826227Y-112630196D01*
X118802429Y-112624235D01*
X118779329Y-112615970D01*
X118757151Y-112605480D01*
X118736107Y-112592867D01*
X118716402Y-112578253D01*
X118698223Y-112561777D01*
X118681747Y-112543598D01*
X118667133Y-112523893D01*
X118654520Y-112502849D01*
X118644030Y-112480671D01*
X118635765Y-112457571D01*
X118629804Y-112433773D01*
X118626204Y-112409504D01*
X118625000Y-112385000D01*
X118625000Y-111135000D01*
X118626204Y-111110496D01*
X118629804Y-111086227D01*
X118635765Y-111062429D01*
X118644030Y-111039329D01*
X118654520Y-111017151D01*
X118667133Y-110996107D01*
X118681747Y-110976402D01*
X118698223Y-110958223D01*
X118716402Y-110941747D01*
X118736107Y-110927133D01*
X118757151Y-110914520D01*
X118779329Y-110904030D01*
X118802429Y-110895765D01*
X118826227Y-110889804D01*
X118850496Y-110886204D01*
X118875000Y-110885000D01*
X119625000Y-110885000D01*
X119649504Y-110886204D01*
X119649504Y-110886204D01*
G37*
D34*
X119250000Y-111760000D03*
D33*
G36*
X119649504Y-115966204D02*
G01*
X119673773Y-115969804D01*
X119697571Y-115975765D01*
X119720671Y-115984030D01*
X119742849Y-115994520D01*
X119763893Y-116007133D01*
X119783598Y-116021747D01*
X119801777Y-116038223D01*
X119818253Y-116056402D01*
X119832867Y-116076107D01*
X119845480Y-116097151D01*
X119855970Y-116119329D01*
X119864235Y-116142429D01*
X119870196Y-116166227D01*
X119873796Y-116190496D01*
X119875000Y-116215000D01*
X119875000Y-117465000D01*
X119873796Y-117489504D01*
X119870196Y-117513773D01*
X119864235Y-117537571D01*
X119855970Y-117560671D01*
X119845480Y-117582849D01*
X119832867Y-117603893D01*
X119818253Y-117623598D01*
X119801777Y-117641777D01*
X119783598Y-117658253D01*
X119763893Y-117672867D01*
X119742849Y-117685480D01*
X119720671Y-117695970D01*
X119697571Y-117704235D01*
X119673773Y-117710196D01*
X119649504Y-117713796D01*
X119625000Y-117715000D01*
X118875000Y-117715000D01*
X118850496Y-117713796D01*
X118826227Y-117710196D01*
X118802429Y-117704235D01*
X118779329Y-117695970D01*
X118757151Y-117685480D01*
X118736107Y-117672867D01*
X118716402Y-117658253D01*
X118698223Y-117641777D01*
X118681747Y-117623598D01*
X118667133Y-117603893D01*
X118654520Y-117582849D01*
X118644030Y-117560671D01*
X118635765Y-117537571D01*
X118629804Y-117513773D01*
X118626204Y-117489504D01*
X118625000Y-117465000D01*
X118625000Y-116215000D01*
X118626204Y-116190496D01*
X118629804Y-116166227D01*
X118635765Y-116142429D01*
X118644030Y-116119329D01*
X118654520Y-116097151D01*
X118667133Y-116076107D01*
X118681747Y-116056402D01*
X118698223Y-116038223D01*
X118716402Y-116021747D01*
X118736107Y-116007133D01*
X118757151Y-115994520D01*
X118779329Y-115984030D01*
X118802429Y-115975765D01*
X118826227Y-115969804D01*
X118850496Y-115966204D01*
X118875000Y-115965000D01*
X119625000Y-115965000D01*
X119649504Y-115966204D01*
X119649504Y-115966204D01*
G37*
D34*
X119250000Y-116840000D03*
D33*
G36*
X122449504Y-115966204D02*
G01*
X122473773Y-115969804D01*
X122497571Y-115975765D01*
X122520671Y-115984030D01*
X122542849Y-115994520D01*
X122563893Y-116007133D01*
X122583598Y-116021747D01*
X122601777Y-116038223D01*
X122618253Y-116056402D01*
X122632867Y-116076107D01*
X122645480Y-116097151D01*
X122655970Y-116119329D01*
X122664235Y-116142429D01*
X122670196Y-116166227D01*
X122673796Y-116190496D01*
X122675000Y-116215000D01*
X122675000Y-117465000D01*
X122673796Y-117489504D01*
X122670196Y-117513773D01*
X122664235Y-117537571D01*
X122655970Y-117560671D01*
X122645480Y-117582849D01*
X122632867Y-117603893D01*
X122618253Y-117623598D01*
X122601777Y-117641777D01*
X122583598Y-117658253D01*
X122563893Y-117672867D01*
X122542849Y-117685480D01*
X122520671Y-117695970D01*
X122497571Y-117704235D01*
X122473773Y-117710196D01*
X122449504Y-117713796D01*
X122425000Y-117715000D01*
X121675000Y-117715000D01*
X121650496Y-117713796D01*
X121626227Y-117710196D01*
X121602429Y-117704235D01*
X121579329Y-117695970D01*
X121557151Y-117685480D01*
X121536107Y-117672867D01*
X121516402Y-117658253D01*
X121498223Y-117641777D01*
X121481747Y-117623598D01*
X121467133Y-117603893D01*
X121454520Y-117582849D01*
X121444030Y-117560671D01*
X121435765Y-117537571D01*
X121429804Y-117513773D01*
X121426204Y-117489504D01*
X121425000Y-117465000D01*
X121425000Y-116215000D01*
X121426204Y-116190496D01*
X121429804Y-116166227D01*
X121435765Y-116142429D01*
X121444030Y-116119329D01*
X121454520Y-116097151D01*
X121467133Y-116076107D01*
X121481747Y-116056402D01*
X121498223Y-116038223D01*
X121516402Y-116021747D01*
X121536107Y-116007133D01*
X121557151Y-115994520D01*
X121579329Y-115984030D01*
X121602429Y-115975765D01*
X121626227Y-115969804D01*
X121650496Y-115966204D01*
X121675000Y-115965000D01*
X122425000Y-115965000D01*
X122449504Y-115966204D01*
X122449504Y-115966204D01*
G37*
D34*
X122050000Y-116840000D03*
D33*
G36*
X122449504Y-121046204D02*
G01*
X122473773Y-121049804D01*
X122497571Y-121055765D01*
X122520671Y-121064030D01*
X122542849Y-121074520D01*
X122563893Y-121087133D01*
X122583598Y-121101747D01*
X122601777Y-121118223D01*
X122618253Y-121136402D01*
X122632867Y-121156107D01*
X122645480Y-121177151D01*
X122655970Y-121199329D01*
X122664235Y-121222429D01*
X122670196Y-121246227D01*
X122673796Y-121270496D01*
X122675000Y-121295000D01*
X122675000Y-122545000D01*
X122673796Y-122569504D01*
X122670196Y-122593773D01*
X122664235Y-122617571D01*
X122655970Y-122640671D01*
X122645480Y-122662849D01*
X122632867Y-122683893D01*
X122618253Y-122703598D01*
X122601777Y-122721777D01*
X122583598Y-122738253D01*
X122563893Y-122752867D01*
X122542849Y-122765480D01*
X122520671Y-122775970D01*
X122497571Y-122784235D01*
X122473773Y-122790196D01*
X122449504Y-122793796D01*
X122425000Y-122795000D01*
X121675000Y-122795000D01*
X121650496Y-122793796D01*
X121626227Y-122790196D01*
X121602429Y-122784235D01*
X121579329Y-122775970D01*
X121557151Y-122765480D01*
X121536107Y-122752867D01*
X121516402Y-122738253D01*
X121498223Y-122721777D01*
X121481747Y-122703598D01*
X121467133Y-122683893D01*
X121454520Y-122662849D01*
X121444030Y-122640671D01*
X121435765Y-122617571D01*
X121429804Y-122593773D01*
X121426204Y-122569504D01*
X121425000Y-122545000D01*
X121425000Y-121295000D01*
X121426204Y-121270496D01*
X121429804Y-121246227D01*
X121435765Y-121222429D01*
X121444030Y-121199329D01*
X121454520Y-121177151D01*
X121467133Y-121156107D01*
X121481747Y-121136402D01*
X121498223Y-121118223D01*
X121516402Y-121101747D01*
X121536107Y-121087133D01*
X121557151Y-121074520D01*
X121579329Y-121064030D01*
X121602429Y-121055765D01*
X121626227Y-121049804D01*
X121650496Y-121046204D01*
X121675000Y-121045000D01*
X122425000Y-121045000D01*
X122449504Y-121046204D01*
X122449504Y-121046204D01*
G37*
D34*
X122050000Y-121920000D03*
D33*
G36*
X119649504Y-121046204D02*
G01*
X119673773Y-121049804D01*
X119697571Y-121055765D01*
X119720671Y-121064030D01*
X119742849Y-121074520D01*
X119763893Y-121087133D01*
X119783598Y-121101747D01*
X119801777Y-121118223D01*
X119818253Y-121136402D01*
X119832867Y-121156107D01*
X119845480Y-121177151D01*
X119855970Y-121199329D01*
X119864235Y-121222429D01*
X119870196Y-121246227D01*
X119873796Y-121270496D01*
X119875000Y-121295000D01*
X119875000Y-122545000D01*
X119873796Y-122569504D01*
X119870196Y-122593773D01*
X119864235Y-122617571D01*
X119855970Y-122640671D01*
X119845480Y-122662849D01*
X119832867Y-122683893D01*
X119818253Y-122703598D01*
X119801777Y-122721777D01*
X119783598Y-122738253D01*
X119763893Y-122752867D01*
X119742849Y-122765480D01*
X119720671Y-122775970D01*
X119697571Y-122784235D01*
X119673773Y-122790196D01*
X119649504Y-122793796D01*
X119625000Y-122795000D01*
X118875000Y-122795000D01*
X118850496Y-122793796D01*
X118826227Y-122790196D01*
X118802429Y-122784235D01*
X118779329Y-122775970D01*
X118757151Y-122765480D01*
X118736107Y-122752867D01*
X118716402Y-122738253D01*
X118698223Y-122721777D01*
X118681747Y-122703598D01*
X118667133Y-122683893D01*
X118654520Y-122662849D01*
X118644030Y-122640671D01*
X118635765Y-122617571D01*
X118629804Y-122593773D01*
X118626204Y-122569504D01*
X118625000Y-122545000D01*
X118625000Y-121295000D01*
X118626204Y-121270496D01*
X118629804Y-121246227D01*
X118635765Y-121222429D01*
X118644030Y-121199329D01*
X118654520Y-121177151D01*
X118667133Y-121156107D01*
X118681747Y-121136402D01*
X118698223Y-121118223D01*
X118716402Y-121101747D01*
X118736107Y-121087133D01*
X118757151Y-121074520D01*
X118779329Y-121064030D01*
X118802429Y-121055765D01*
X118826227Y-121049804D01*
X118850496Y-121046204D01*
X118875000Y-121045000D01*
X119625000Y-121045000D01*
X119649504Y-121046204D01*
X119649504Y-121046204D01*
G37*
D34*
X119250000Y-121920000D03*
D33*
G36*
X119649504Y-126126204D02*
G01*
X119673773Y-126129804D01*
X119697571Y-126135765D01*
X119720671Y-126144030D01*
X119742849Y-126154520D01*
X119763893Y-126167133D01*
X119783598Y-126181747D01*
X119801777Y-126198223D01*
X119818253Y-126216402D01*
X119832867Y-126236107D01*
X119845480Y-126257151D01*
X119855970Y-126279329D01*
X119864235Y-126302429D01*
X119870196Y-126326227D01*
X119873796Y-126350496D01*
X119875000Y-126375000D01*
X119875000Y-127625000D01*
X119873796Y-127649504D01*
X119870196Y-127673773D01*
X119864235Y-127697571D01*
X119855970Y-127720671D01*
X119845480Y-127742849D01*
X119832867Y-127763893D01*
X119818253Y-127783598D01*
X119801777Y-127801777D01*
X119783598Y-127818253D01*
X119763893Y-127832867D01*
X119742849Y-127845480D01*
X119720671Y-127855970D01*
X119697571Y-127864235D01*
X119673773Y-127870196D01*
X119649504Y-127873796D01*
X119625000Y-127875000D01*
X118875000Y-127875000D01*
X118850496Y-127873796D01*
X118826227Y-127870196D01*
X118802429Y-127864235D01*
X118779329Y-127855970D01*
X118757151Y-127845480D01*
X118736107Y-127832867D01*
X118716402Y-127818253D01*
X118698223Y-127801777D01*
X118681747Y-127783598D01*
X118667133Y-127763893D01*
X118654520Y-127742849D01*
X118644030Y-127720671D01*
X118635765Y-127697571D01*
X118629804Y-127673773D01*
X118626204Y-127649504D01*
X118625000Y-127625000D01*
X118625000Y-126375000D01*
X118626204Y-126350496D01*
X118629804Y-126326227D01*
X118635765Y-126302429D01*
X118644030Y-126279329D01*
X118654520Y-126257151D01*
X118667133Y-126236107D01*
X118681747Y-126216402D01*
X118698223Y-126198223D01*
X118716402Y-126181747D01*
X118736107Y-126167133D01*
X118757151Y-126154520D01*
X118779329Y-126144030D01*
X118802429Y-126135765D01*
X118826227Y-126129804D01*
X118850496Y-126126204D01*
X118875000Y-126125000D01*
X119625000Y-126125000D01*
X119649504Y-126126204D01*
X119649504Y-126126204D01*
G37*
D34*
X119250000Y-127000000D03*
D33*
G36*
X122449504Y-126126204D02*
G01*
X122473773Y-126129804D01*
X122497571Y-126135765D01*
X122520671Y-126144030D01*
X122542849Y-126154520D01*
X122563893Y-126167133D01*
X122583598Y-126181747D01*
X122601777Y-126198223D01*
X122618253Y-126216402D01*
X122632867Y-126236107D01*
X122645480Y-126257151D01*
X122655970Y-126279329D01*
X122664235Y-126302429D01*
X122670196Y-126326227D01*
X122673796Y-126350496D01*
X122675000Y-126375000D01*
X122675000Y-127625000D01*
X122673796Y-127649504D01*
X122670196Y-127673773D01*
X122664235Y-127697571D01*
X122655970Y-127720671D01*
X122645480Y-127742849D01*
X122632867Y-127763893D01*
X122618253Y-127783598D01*
X122601777Y-127801777D01*
X122583598Y-127818253D01*
X122563893Y-127832867D01*
X122542849Y-127845480D01*
X122520671Y-127855970D01*
X122497571Y-127864235D01*
X122473773Y-127870196D01*
X122449504Y-127873796D01*
X122425000Y-127875000D01*
X121675000Y-127875000D01*
X121650496Y-127873796D01*
X121626227Y-127870196D01*
X121602429Y-127864235D01*
X121579329Y-127855970D01*
X121557151Y-127845480D01*
X121536107Y-127832867D01*
X121516402Y-127818253D01*
X121498223Y-127801777D01*
X121481747Y-127783598D01*
X121467133Y-127763893D01*
X121454520Y-127742849D01*
X121444030Y-127720671D01*
X121435765Y-127697571D01*
X121429804Y-127673773D01*
X121426204Y-127649504D01*
X121425000Y-127625000D01*
X121425000Y-126375000D01*
X121426204Y-126350496D01*
X121429804Y-126326227D01*
X121435765Y-126302429D01*
X121444030Y-126279329D01*
X121454520Y-126257151D01*
X121467133Y-126236107D01*
X121481747Y-126216402D01*
X121498223Y-126198223D01*
X121516402Y-126181747D01*
X121536107Y-126167133D01*
X121557151Y-126154520D01*
X121579329Y-126144030D01*
X121602429Y-126135765D01*
X121626227Y-126129804D01*
X121650496Y-126126204D01*
X121675000Y-126125000D01*
X122425000Y-126125000D01*
X122449504Y-126126204D01*
X122449504Y-126126204D01*
G37*
D34*
X122050000Y-127000000D03*
D18*
X177800000Y-81280000D03*
X175300000Y-81280000D03*
D35*
X167640000Y-73820000D03*
X167640000Y-68420000D03*
X175260000Y-68420000D03*
X175260000Y-73820000D03*
D18*
X173208000Y-93472000D03*
X170708000Y-93472000D03*
X165755000Y-90805000D03*
X168255000Y-90805000D03*
X158770000Y-86360000D03*
X161270000Y-86360000D03*
X161270000Y-83820000D03*
X158770000Y-83820000D03*
X158770000Y-81280000D03*
X161270000Y-81280000D03*
X161270000Y-78740000D03*
X158770000Y-78740000D03*
D19*
X177960000Y-83820000D03*
X175260000Y-83820000D03*
X173355000Y-90805000D03*
X170655000Y-90805000D03*
X177800000Y-88900000D03*
X175100000Y-88900000D03*
X175006000Y-86360000D03*
X177706000Y-86360000D03*
X161497000Y-88900000D03*
X158797000Y-88900000D03*
D27*
X163830000Y-94615000D03*
X158930000Y-94615000D03*
D36*
X47625000Y-103505000D03*
D37*
X50800000Y-106680000D03*
D36*
X53975000Y-103505000D03*
X47625000Y-109855000D03*
X53975000Y-109855000D03*
D12*
X120650000Y-62230000D03*
D11*
X123190000Y-62230000D03*
X125730000Y-62230000D03*
X128270000Y-62230000D03*
X130810000Y-62230000D03*
X133350000Y-62230000D03*
X135890000Y-62230000D03*
X138430000Y-62230000D03*
X140970000Y-62230000D03*
X143510000Y-62230000D03*
X146050000Y-62230000D03*
X148590000Y-62230000D03*
X151130000Y-62230000D03*
X153670000Y-62230000D03*
X156210000Y-62230000D03*
X158750000Y-62230000D03*
D12*
X104140000Y-74930000D03*
D11*
X101600000Y-74930000D03*
X99060000Y-74930000D03*
X96520000Y-74930000D03*
X93980000Y-74930000D03*
X91440000Y-74930000D03*
X88900000Y-74930000D03*
D38*
X193040000Y-55880000D03*
X48260000Y-130810000D03*
X193040000Y-130810000D03*
X48260000Y-55880000D03*
D39*
X76962000Y-89408000D03*
D40*
X76962000Y-79248000D03*
D41*
X137795000Y-116680000D03*
X136525000Y-116680000D03*
X135255000Y-116680000D03*
X133985000Y-116680000D03*
X133985000Y-122080000D03*
X135255000Y-122080000D03*
X136525000Y-122080000D03*
X137795000Y-122080000D03*
D42*
X171494000Y-88045000D03*
X171494000Y-87395000D03*
X171494000Y-86745000D03*
X171494000Y-86095000D03*
X171494000Y-85445000D03*
X171494000Y-84795000D03*
X171494000Y-84145000D03*
X171494000Y-83495000D03*
X171494000Y-82845000D03*
X171494000Y-82195000D03*
X171494000Y-81545000D03*
X171494000Y-80895000D03*
X171494000Y-80245000D03*
X171494000Y-79595000D03*
X164294000Y-79595000D03*
X164294000Y-80245000D03*
X164294000Y-80895000D03*
X164294000Y-81545000D03*
X164294000Y-82195000D03*
X164294000Y-82845000D03*
X164294000Y-83495000D03*
X164294000Y-84145000D03*
X164294000Y-84795000D03*
X164294000Y-85445000D03*
X164294000Y-86095000D03*
X164294000Y-86745000D03*
X164294000Y-87395000D03*
X164294000Y-88045000D03*
M02*
